<svg xmlns="http://www.w3.org/2000/svg" version="1.1" xmlns:xlink="http://www.w3.org/1999/xlink" xmlns:svgjs="http://svgjs.dev/svgjs" width="1000" height="623" viewBox="0 0 1000 623"><g transform="matrix(1,0,0,1,-0.6060606060606233,0.2522267206477409)"><svg viewBox="0 0 396 247" data-background-color="#8abcd7" preserveAspectRatio="xMidYMid meet" height="623" width="1000" xmlns="http://www.w3.org/2000/svg" xmlns:xlink="http://www.w3.org/1999/xlink"><g id="tight-bounds" transform="matrix(1,0,0,1,0.2400000000000091,-0.09999999999999432)"><svg viewBox="0 0 395.52 247.2" height="247.2" width="395.52"><g><svg></svg></g><g><svg viewBox="0 0 395.52 247.2" height="247.2" width="395.52"><g transform="matrix(1,0,0,1,75.54432,54.68738507982583)"><svg viewBox="0 0 244.43135999999998 137.82522984034833" height="137.82522984034833" width="244.43135999999998"><g><svg viewBox="0 0 244.43135999999998 137.82522984034833" height="137.82522984034833" width="244.43135999999998"><g><svg viewBox="0 0 244.43135999999998 137.82522984034833" height="137.82522984034833" width="244.43135999999998"><g><svg viewBox="0 0 244.43135999999998 137.82522984034833" height="137.82522984034833" width="244.43135999999998"><g id="textblocktransform"><svg viewBox="0 0 244.43135999999998 137.82522984034833" height="137.82522984034833" width="244.43135999999998" id="textblock"><g><svg viewBox="0 0 244.43135999999998 137.82522984034833" height="137.82522984034833" width="244.43135999999998"><g transform="matrix(1,0,0,1,0,0)"><svg width="244.43135999999998" viewBox="0.2199999988079071 -37.380001068115234 67.27999877929688 37.94000244140625" height="137.82522984034833" data-palette-color="#ffffff"><path d="M0.22-34.74L0.22-36.82 13.48-36.82 13.48-34.74 9.25-34.18 18.14-17.94 25.76-34.18 21.73-34.74 21.73-36.82 33.06-36.82 33.06-34.74 29.3-34.28 19.68-14.97 19.68-2.64 23.93-2.08 23.93 0 10.96 0 10.96-2.08 15.14-2.64 15.14-14.94 3.56-34.18 0.22-34.74ZM55.22-37.38L55.22-37.38Q60.18-37.38 64.3-36.13L64.3-36.13Q66.11-35.57 67.33-34.89L67.33-34.89 66.77-28.37 65.16-28.37Q65.16-31.08 62.5-32.71L62.5-32.71Q59.67-34.45 54.71-34.45L54.71-34.45Q48.29-34.45 44.09-30.13L44.09-30.13Q39.91-25.78 39.91-19.26L39.91-19.26Q39.91-12.35 43.77-7.54L43.77-7.54Q46.38-4.3 50.39-3.03L50.39-3.03Q52.44-2.37 55.05-2.37 57.66-2.37 59.69-2.67 61.72-2.98 63.01-3.66L63.01-3.66Q65.55-5 65.55-8.2L65.55-8.2 67.16-8.2 67.5-1.9Q63.25 0.56 54.98 0.56L54.98 0.56Q45.85 0.56 40.4-4.74L40.4-4.74Q35.2-9.79 35.2-17.77L35.2-17.77Q35.2-26.61 41.35-32.18L41.35-32.18Q47.04-37.38 55.22-37.38Z" opacity="1" transform="matrix(1,0,0,1,0,0)" fill="#ffffff" class="wordmark-text-0" data-fill-palette-color="primary" id="text-0"></path></svg></g></svg></g></svg></g></svg></g></svg></g></svg></g></svg></g><path d="M250.117 48.687L250.117 4.002 10.92 4.002 10.92 243.198 250.117 243.198 250.117 198.513 237.687 198.513 237.687 230.769 23.349 230.769 23.349 16.431 237.687 16.431 237.687 48.687Z" fill="#ffffff" stroke="transparent" data-fill-palette-color="primary"></path></svg></g><defs></defs></svg><rect width="395.52" height="247.2" fill="none" stroke="none" visibility="hidden"></rect></g></svg></g></svg>